<?xml version="1.0" encoding="UTF-8" standalone="no"?>
<!-- Created with Inkscape (http://www.inkscape.org/) -->

<svg
   version="1.1"
   id="svg1273"
   width="142.48856"
   height="154.21957"
   viewBox="0 0 142.48856 154.21958"
   sodipodi:docname="X.svg"
   inkscape:version="1.2.2 (b0a8486541, 2022-12-01)"
   xmlns:inkscape="http://www.inkscape.org/namespaces/inkscape"
   xmlns:sodipodi="http://sodipodi.sourceforge.net/DTD/sodipodi-0.dtd"
   xmlns="http://www.w3.org/2000/svg"
   xmlns:svg="http://www.w3.org/2000/svg">
  <defs
     id="defs1277" />
  <sodipodi:namedview
     id="namedview1275"
     pagecolor="#ffffff"
     bordercolor="#000000"
     borderopacity="0.25"
     inkscape:showpageshadow="2"
     inkscape:pageopacity="0.0"
     inkscape:pagecheckerboard="0"
     inkscape:deskcolor="#d1d1d1"
     showgrid="false"
     inkscape:zoom="1.9136366"
     inkscape:cx="63.230396"
     inkscape:cy="103.7292"
     inkscape:window-width="1306"
     inkscape:window-height="699"
     inkscape:window-x="60"
     inkscape:window-y="32"
     inkscape:window-maximized="1"
     inkscape:current-layer="g1279">
    <inkscape:grid
       type="xygrid"
       id="grid1301" />
  </sodipodi:namedview>
  <g
     inkscape:groupmode="layer"
     inkscape:label="Image"
     id="g1279"
     transform="translate(-29.426197,-17.28)">
    <path
       style="fill:#ffffff;stroke-width:0.32"
       d="m 87.63528,171.01832 c -1.75888,-0.54152 -4.446058,-2.84036 -5.215456,-4.46174 -0.604563,-1.27402 -0.821779,-0.72883 2.850518,-7.15455 2.054948,-3.5957 3.846845,-7.79682 4.692986,-11.00275 0.754077,-2.85711 0.990035,-9.01025 0.399443,-10.41646 -0.300291,-0.715 -0.341587,-0.69264 -1.372566,0.74297 -2.404579,3.34832 -7.638058,6.65617 -12.093376,7.64371 -1.266743,0.28077 -2.42793,0.5105 -2.580419,0.5105 -0.152487,0 -0.214752,-0.864 -0.138368,-1.92 0.07638,-1.056 0.04022,-1.92 -0.08036,-1.92 -0.120582,0 -0.912262,0.7115 -1.759292,1.58112 -1.86929,1.91913 -5.326016,4.19872 -8.260224,5.44734 -1.853719,0.78883 -6.714912,2.25154 -7.482794,2.25154 -0.134246,0 0.03371,-0.612 0.373242,-1.36 0.339529,-0.748 0.620489,-1.70079 0.624355,-2.11732 0.0059,-0.63335 -0.110835,-0.72406 -0.712973,-0.5541 -2.584278,0.72944 -4.254931,0.88927 -7.886093,0.75446 -2.218649,-0.0824 -4.356413,-0.28138 -4.750585,-0.44224 l -0.716682,-0.29247 0.947018,-2.00246 c 1.319942,-2.79102 2.661843,-4.66624 5.184368,-7.24483 1.193894,-1.22043 2.12583,-2.26385 2.070966,-2.31872 -0.05486,-0.0549 -1.365232,-0.28054 -2.91193,-0.50151 l -2.812176,-0.40177 2.161533,-2.33466 c 3.352515,-3.62102 7.7892,-6.69311 11.193581,-7.75076 2.028374,-0.63016 1.993066,-0.6801 -1.01945,-1.44161 -3.477414,-0.87903 -6.754252,-2.46029 -10.12574,-4.88625 -2.288231,-1.64649 -5.33481,-4.59116 -5.33481,-5.15635 0,-0.12175 0.857894,-0.39856 1.906432,-0.61513 1.048538,-0.21657 2.359862,-0.58442 2.914051,-0.81744 l 1.007623,-0.42367 -2.083552,-1.16519 C 41.47824,108.37 37.69967,104.33076 35.160288,98.992848 34.478131,97.558912 33.92,96.298912 33.92,96.192848 33.92,96.086781 34.928,96 36.16,96 c 1.411485,0 2.24,-0.129786 2.24,-0.350896 0,-0.192992 -0.584243,-1.01463 -1.298317,-1.825862 C 35.235568,91.703222 32.99657,87.986019 31.781742,84.991034 30.30042,81.339043 30.314076,81.28 32.64,81.28 c 1.056,0 1.92,-0.08577 1.92,-0.190602 0,-0.104832 -0.26976,-0.572832 -0.599469,-1.04 C 31.770513,76.946323 29.797158,71.188243 29.529491,67.12 29.316464,63.88223 29.073331,64.044355 32.8,64.939165 c 2.831069,0.679763 6.825786,2.302333 9.89761,4.020192 1.10214,0.616355 2.077232,1.120643 2.16687,1.120643 0.08964,0 0.252291,-0.956496 0.361459,-2.125546 0.109168,-1.169052 0.26856,-2.195619 0.354202,-2.28126 0.08564,-0.08564 1.205145,0.349692 2.487785,0.967417 2.811994,1.354263 8.002775,4.944544 10.694269,7.396848 l 1.962195,1.787818 0.364839,-2.453008 c 0.200662,-1.349152 0.420291,-2.508458 0.488067,-2.576234 0.317718,-0.317715 2.123779,1.009562 3.880547,2.851821 2.919328,3.061389 6.68368,8.42535 10.689699,15.232144 0.750967,1.276 1.395504,2.32 1.432304,2.32 0.0368,0 -0.123459,-1.116 -0.356137,-2.48 C 76.567021,84.870362 76.324307,76.723184 76.785184,74 c 0.376928,-2.227162 0.428112,-2.32 1.279072,-2.32 0.487539,0 1.416925,0.36 2.065299,0.8 0.648378,0.44 1.244471,0.8 1.324656,0.8 0.08018,0 0.145789,-1.949677 0.145789,-4.332611 0,-6.598877 0.76329,-12.411024 2.270925,-17.292176 C 84.243005,50.45056 84.685325,49.6 84.939709,49.6 c 0.238694,0 0.880909,0.509011 1.427142,1.131136 L 87.36,51.862269 v -1.099335 c 0,-1.771446 1.178374,-8.123891 2.085229,-11.241174 C 90.3496,36.413014 92.578813,31.36 93.04591,31.36 c 0.158084,0 0.707424,0.428 1.220756,0.95111 0.513334,0.523111 1.023283,0.955111 1.133219,0.96 0.109936,0.0049 0.663113,-1.317662 1.229283,-2.939003 0.56617,-1.621341 1.659725,-4.296753 2.430122,-5.945359 1.3838,-2.961249 4.07289,-7.106748 4.60999,-7.106748 1.04045,0 3.78059,5.160448 5.4648,10.29173 0.53945,1.643548 1.04005,3.16726 1.11246,3.386026 0.0918,0.277351 0.4875,0.156267 1.30721,-0.4 0.64656,-0.438766 1.43312,-0.797756 1.74791,-0.797756 1.83519,0 3.82596,12.647731 3.39181,21.548736 -0.1701,3.487411 -0.1414,3.770339 0.36087,3.557414 1.01047,-0.428364 3.26317,-0.895302 3.4445,-0.713971 0.45524,0.455232 0.81199,4.875258 0.62696,7.767821 -0.18397,2.876035 -1.46445,10.842352 -1.94337,12.09041 -0.16226,0.422822 0.0948,0.467388 1.80273,0.312518 l 1.99197,-0.180624 -0.22627,2.528848 c -0.21103,2.35849 -1.12723,7.15127 -1.64571,8.608848 -0.12521,0.352 0.45093,-0.116973 1.28031,-1.04216 1.2971,-1.446954 3.77709,-3.27784 4.43992,-3.27784 0.11503,0 0.65225,0.78513 1.19382,1.744736 l 0.98466,1.744733 2.33835,-2.784733 C 135.53664,76.669581 140.50513,72.32 142.0166,72.32 c 0.32624,0 1.0234,2.150694 1.0234,3.157126 0,0.375581 0.0785,0.682874 0.17445,0.682874 0.0959,0 1.21195,-0.699686 2.48,-1.554858 3.59252,-2.422784 8.94523,-4.8731 9.47806,-4.338777 0.10312,0.103411 0.1815,1.831785 0.17418,3.840829 -0.007,2.009043 0.0647,3.647747 0.16,3.641564 0.0953,-0.0062 1.10931,-0.224041 2.25331,-0.484134 2.55624,-0.581168 9.7647,-0.957731 12.29111,-0.64208 l 1.86364,0.232848 -0.17738,1.093072 c -0.22412,1.381091 -2.70116,6.635654 -4.08643,8.668563 -0.57827,0.848637 -1.62351,2.227763 -2.32275,3.064733 -0.69924,0.836966 -1.21213,1.574653 -1.13976,1.639302 0.0724,0.06465 0.63557,0.37049 1.25157,0.679648 1.74305,0.874797 4.16,2.728957 4.16,3.191341 0,0.229648 -0.62428,1.261386 -1.3873,2.292746 -1.51733,2.05096 -5.02447,4.747193 -8.6927,6.682813 -1.232,0.65009 -2.29835,1.23667 -2.36966,1.30351 -0.0713,0.0668 0.90069,0.57663 2.16,1.13285 1.25931,0.55623 2.28966,1.19469 2.28966,1.4188 0,0.71672 -2.04962,3.12476 -3.99061,4.68846 -1.97262,1.58917 -5.83412,3.72167 -8.00939,4.42315 l -1.28,0.41277 1.6897,0.38279 c 0.92933,0.21053 1.77683,0.46993 1.88334,0.57643 0.75766,0.75766 -5.66358,6.07726 -9.37182,7.76398 -5.84004,2.65639 -7.65378,3.39022 -9.80122,3.96558 -0.836,0.22398 -1.52,0.50974 -1.52,0.635 0,0.12527 0.612,0.40712 1.36,0.62633 3.74655,1.09798 9.30186,5.13327 12.4189,9.02089 l 0.92859,1.15815 -2.76173,0.35651 c -1.51896,0.19607 -2.82029,0.41505 -2.89185,0.48661 -0.0716,0.0716 0.68744,0.90197 1.68666,1.84534 2.58015,2.43596 5.08327,6.0869 6.21616,9.06664 0.27879,0.73328 0.21029,0.78668 -1.45164,1.13169 -2.47836,0.51451 -7.94872,0.43244 -10.1607,-0.15244 -1.02059,-0.26986 -1.93662,-0.49065 -2.03562,-0.49065 -0.28761,0 0.2223,2.29318 0.72688,3.26894 0.55133,1.06615 0.58286,1.0634 -2.60793,0.22766 -5.11026,-1.33851 -10.00293,-3.9933 -12.96611,-7.03548 -0.84703,-0.86962 -1.63871,-1.58112 -1.7593,-1.58112 -0.12058,0 -0.15674,0.864 -0.0803,1.92 0.0764,1.056 0.0141,1.92 -0.13837,1.92 -1.12977,0 -5.25262,-1.20446 -6.95755,-2.03261 -2.9178,-1.41727 -4.82879,-2.93889 -7.9851,-6.35813 L 100,141.28 l -0.02131,5.44 c -0.02285,5.83053 -0.484272,9.23179 -1.943229,14.32373 -1.341753,4.68291 -2.852016,8.04465 -4.383005,9.75627 -0.539456,0.6031 -0.959673,0.71638 -2.588233,0.69771 -1.069322,-0.0123 -2.612346,-0.22799 -3.428941,-0.47939 z M 91.947165,167.28 c 1.712617,-2.28427 3.430352,-6.56671 4.460358,-11.12 0.604573,-2.67261 0.686234,-3.98747 0.675715,-10.88 -0.0092,-6.06066 -0.133516,-8.42101 -0.547545,-10.4 -0.720167,-3.44228 -0.702909,-3.48004 0.601622,-1.31659 4.346715,7.20863 13.718735,15.55659 17.464935,15.55659 0.84883,0 0.86333,-0.0365 1.08801,-2.73367 0.12524,-1.50352 0.34455,-2.69152 0.48735,-2.64 0.1428,0.0515 1.09725,0.89074 2.12101,1.86493 3.05923,2.91112 6.96091,5.47632 10.13687,6.6646 2.88321,1.07875 3.08451,1.0068 3.08451,-1.10253 0,-0.98266 0.10978,-1.73866 0.24396,-1.68 0.13418,0.0587 1.03418,0.50066 2,0.98219 2.03582,1.01502 4.4538,1.53387 6.99972,1.50199 2.90929,-0.0364 3.07897,-0.20118 1.95672,-1.89996 -1.35042,-2.04414 -5.25319,-5.87711 -7.59027,-7.45451 -1.09442,-0.73867 -1.99442,-1.43695 -2,-1.55173 -0.0189,-0.38918 2.06053,-0.94782 4.22987,-1.13639 1.188,-0.10326 2.16,-0.28309 2.16,-0.39961 0,-0.53103 -4.56846,-3.47593 -8.73133,-5.62835 -2.51835,-1.30212 -4.91487,-2.72521 -5.32562,-3.16243 l -0.74681,-0.79494 1.24188,-0.53915 c 0.68303,-0.29653 1.52988,-0.64166 1.88188,-0.76694 0.352,-0.12529 1.144,-0.40728 1.76,-0.62664 0.616,-0.21937 1.912,-0.66103 2.88,-0.98147 1.60675,-0.53189 4.09653,-1.61554 8.52186,-3.70906 0.90895,-0.43 1.83008,-0.99564 2.04697,-1.25697 0.21689,-0.26134 0.95429,-0.78987 1.63867,-1.17451 0.68438,-0.38464 1.19376,-0.85107 1.13195,-1.0365 -0.0618,-0.18543 -0.86661,-0.4457 -1.78845,-0.57836 -1.93978,-0.27916 -5.21018,-1.51595 -5.37861,-2.03407 -0.0684,-0.21054 0.51047,-0.42817 1.42808,-0.53685 4.32625,-0.51238 12.09908,-4.40144 15.07699,-7.54363 0.71573,-0.75522 0.72607,-0.8222 0.18773,-1.21584 -0.67243,-0.49169 -2.44735,-1.14904 -5.10519,-1.89072 l -1.92,-0.53579 1.12,-0.48279 c 6.74405,-2.90708 14.8768,-7.653218 15.27095,-8.911878 0.12925,-0.412729 -2.93015,-1.840294 -5.11095,-2.384851 -0.836,-0.208752 -1.52,-0.434848 -1.52,-0.502438 0,-0.06759 1.05722,-1.526493 2.34937,-3.24201 3.0681,-4.073347 6.16608,-8.692541 6.43789,-9.599123 0.2139,-0.713421 0.18631,-0.72 -3.01919,-0.72 -3.51638,0 -6.75951,0.544138 -10.68478,1.792707 -1.3842,0.440291 -2.55931,0.757053 -2.61136,0.703911 -0.0521,-0.05314 0.11013,-0.672618 0.3604,-1.376618 0.25027,-0.704 0.5486,-2.420317 0.66295,-3.814035 0.19725,-2.404058 0.17654,-2.522263 -0.40368,-2.304467 -2.53918,0.9531 -7.60344,5.145644 -10.0516,8.321404 -0.616,0.799079 -1.228,1.45832 -1.36,1.464983 -0.132,0.0067 -0.24,-1.139885 -0.24,-2.547885 0,-2.144384 -0.084,-2.56 -0.51736,-2.56 -1.02071,0 -7.5085,7.274547 -10.76776,12.073546 l -1.1366,1.673545 -0.2129,-1.547949 C 126.67289,90.014147 125.70093,88 125.16786,88 c -1.55345,0 -7.35555,7.394074 -10.99812,14.01576 -0.70669,1.28467 -1.33184,2.28881 -1.38923,2.23142 -0.0574,-0.0574 0.52041,-1.97248 1.28399,-4.255762 2.19934,-6.576532 3.8843,-15.063997 3.63703,-18.320474 L 117.6,80.33385 115.71491,81.286925 C 114.6781,81.811117 113.78012,82.24 113.7194,82.24 c -0.0607,0 0.15487,-0.756 0.4791,-1.68 1.10634,-3.15287 1.62633,-5.207632 2.24829,-8.884336 C 117.05215,68.09704 117.67313,60.8 117.37229,60.8 c -0.0825,0 -0.92905,0.429392 -1.88116,0.954202 -0.95212,0.524812 -1.80352,0.956812 -1.89199,0.96 -0.0885,0.0032 -0.18532,-2.838202 -0.2152,-6.314202 -0.0671,-7.805642 -1.18433,-18 -1.97265,-18 -0.106,0 -1.02491,0.823491 -2.04201,1.829984 L 107.52,42.059965 v -2.57121 c 0,-2.967107 -0.39883,-5.501699 -1.32945,-8.448755 -0.76526,-2.423419 -2.51212,-6.4 -2.81143,-6.4 -0.33536,0 -2.4414,3.814343 -3.513654,6.363741 -1.216432,2.892176 -2.231319,6.77271 -2.486794,9.508537 C 97.170186,42.744896 96.915562,43.034 96.350208,41.68 96.148118,41.196 95.49473,40.224 94.89823,39.52 l -1.08454,-1.28 -0.621668,1.441139 C 91.54968,43.488371 90.305878,52.559878 90.680304,58 c 0.105994,1.54 0.08629,2.794822 -0.04379,2.788493 -0.412342,-0.02006 -1.9152,-1.384717 -2.907235,-2.639875 -0.526589,-0.666263 -1.039514,-1.07858 -1.139834,-0.91626 -0.10032,0.16232 -0.425078,1.931444 -0.721686,3.931386 -0.778791,5.251139 -0.710259,15.277008 0.135318,19.796256 0.34577,1.848 0.587383,3.409149 0.536915,3.469219 -0.300675,0.357882 -1.753539,-0.59519 -3.685401,-2.417609 L 80.64,79.922477 l 0.0013,3.638761 c 0.0019,5.594442 1.280723,12.149018 3.414339,17.501172 0.443424,1.11232 0.743651,2.08498 0.667171,2.16146 -0.276768,0.27677 -4.079177,-2.4214 -5.753708,-4.082801 -2.25689,-2.239191 -4.55914,-5.383277 -8.509498,-11.621069 -3.764989,-5.945082 -6.377494,-9.423728 -6.584317,-8.767261 -0.0775,0.245994 -0.223814,1.141674 -0.325142,1.990403 -0.316058,2.647316 -0.552512,2.722717 -2.102103,0.670301 C 59.322163,78.597763 55.729446,74.94655 53.601389,73.439059 51.655584,72.060666 49.232698,70.72 48.68744,70.72 c -0.500973,0 -0.69655,1.44776 -0.405814,3.003997 0.28022,1.499942 -0.02598,1.923648 -0.817885,1.131744 -1.387648,-1.387648 -10.360352,-5.570957 -12.797242,-5.96641 -1.007632,-0.163517 -1.12039,-0.114422 -0.971184,0.422835 0.09284,0.334311 0.343379,1.399834 0.556752,2.367834 0.213373,0.968 0.854243,2.781635 1.424157,4.030301 1.069168,2.342515 4.058704,7.084774 5.289622,8.390857 0.38418,0.407636 0.648026,0.789408 0.58633,0.848384 C 41.49048,85.008515 40.36,84.86257 39.04,84.625219 c -3.308202,-0.594857 -3.84,-0.58048 -3.84,0.103808 0,0.587133 1.715907,4.175824 2.941043,6.150973 0.750362,1.209722 4.161811,5.640342 5.543789,7.2 l 0.850637,0.96 -1.387735,0.216282 c -0.763254,0.118953 -1.999734,0.226953 -2.747734,0.24 -0.748,0.01306 -1.36,0.106076 -1.36,0.206736 0,0.632682 1.887354,3.192562 3.444221,4.671502 3.202915,3.04261 7.618281,5.67236 12.315779,7.33517 1.188,0.42052 2.16,0.85614 2.16,0.96804 0,0.27503 -2.720013,1.42013 -4.4,1.85236 -0.748,0.19245 -1.968589,0.50824 -2.712419,0.70174 l -1.352416,0.35184 1.362288,1.19674 c 3.228573,2.83624 9.025264,5.43877 15.502547,6.96016 2.068,0.48573 3.759626,0.95881 3.759168,1.05129 -3.2e-4,0.0925 -1.163632,0.57883 -2.584835,1.08078 -3.515309,1.24157 -9.370375,4.25159 -11.939466,6.13795 -1.163177,0.85407 -2.114867,1.64819 -2.114867,1.76472 0,0.11652 0.972,0.29635 2.16,0.39961 2.267795,0.19712 4.24,0.74877 4.24,1.18598 0,0.14206 -0.676806,0.65492 -1.504016,1.1397 -1.929712,1.13088 -6.960128,5.95219 -8.151677,7.81282 -0.837629,1.30797 -0.868358,1.45302 -0.351136,1.6575 1.825162,0.72157 6.71185,0.0663 9.362867,-1.2554 0.965821,-0.48153 1.865821,-0.92352 2,-0.98219 0.13418,-0.0587 0.243962,0.69734 0.243962,1.68 0,2.10983 0.200912,2.18143 3.089069,1.10083 3.437622,-1.28618 6.69839,-3.43463 10.129568,-6.67416 1.025267,-0.968 1.980957,-1.80215 2.123753,-1.85367 0.1428,-0.0515 0.362106,1.13648 0.487348,2.64 0.224035,2.68951 0.241465,2.73367 1.078988,2.73342 0.947415,-2.8e-4 4.447572,-1.56411 5.761997,-2.5744 1.695933,-1.30351 4.938451,-4.67838 6.697146,-6.97051 2.051725,-2.67403 1.919993,-2.73766 2.867545,1.38516 0.741194,3.22495 0.732679,11.37729 -0.01517,14.50855 -1.175795,4.92317 -3.46278,10.17728 -6.017843,13.82535 -0.683328,0.97565 -1.242416,1.84971 -1.242416,1.94237 0,0.30351 1.745216,2.09519 2.4,2.46389 0.352,0.19821 1.244672,0.36476 1.983715,0.37011 1.148196,0.008 1.457172,-0.14159 2.12345,-1.03027 z"
       id="path1283" />
  </g>
</svg>
